<svg width="30" height="30" viewBox="0 0 30 30" fill="none" xmlns="http://www.w3.org/2000/svg">
<path d="M12.5 23.75H7.75C6.34987 23.75 5.6498 23.75 5.11502 23.4775C4.64462 23.2378 4.26217 22.8554 4.02248 22.385C3.75 21.8502 3.75 21.1501 3.75 19.75V10.25C3.75 8.84987 3.75 8.1498 4.02248 7.61502C4.26217 7.14462 4.64462 6.76217 5.11502 6.52248C5.6498 6.25 6.34987 6.25 7.75 6.25H22.25C23.6501 6.25 24.3502 6.25 24.885 6.52248C25.3554 6.76217 25.7378 7.14462 25.9775 7.61502C26.25 8.1498 26.25 8.84987 26.25 10.25V12.5M25.7584 10.3279L19.4374 14.5419C17.8336 15.6111 17.0317 16.1457 16.165 16.3534C15.399 16.5369 14.6006 16.5369 13.8346 16.3534C12.9679 16.1457 12.166 15.6111 10.5622 14.5419L3.93433 10.1233M17.5 26.25L20.0312 25.7438C20.2519 25.6996 20.3623 25.6775 20.4652 25.6372C20.5565 25.6014 20.6433 25.5549 20.7238 25.4988C20.8145 25.4355 20.894 25.356 21.0532 25.1968L26.25 20C26.9404 19.3096 26.9404 18.1904 26.25 17.5C25.5596 16.8096 24.4404 16.8096 23.75 17.5L18.5532 22.6968C18.394 22.856 18.3145 22.9355 18.2512 23.0262C18.1951 23.1067 18.1486 23.1935 18.1128 23.2848C18.0725 23.3877 18.0504 23.4981 18.0062 23.7188L17.5 26.25Z" stroke="black" stroke-width="2.5" stroke-linecap="round" stroke-linejoin="round"/>
</svg>
