<svg width="59" height="55" viewBox="0 0 59 55" fill="none" xmlns="http://www.w3.org/2000/svg">
<path d="M7.50138 9.448C7.44271 9.544 7.38138 9.616 7.31738 9.664C7.25338 9.70667 7.17338 9.728 7.07738 9.728C6.97604 9.728 6.86138 9.68533 6.73338 9.6C6.61071 9.51467 6.45604 9.42133 6.26938 9.32C6.08804 9.21333 5.87204 9.11733 5.62138 9.032C5.37071 8.94133 5.07204 8.896 4.72538 8.896C4.40538 8.896 4.12271 8.936 3.87738 9.016C3.63738 9.096 3.43471 9.208 3.26938 9.352C3.10404 9.496 2.97871 9.66667 2.89338 9.864C2.81338 10.056 2.77338 10.2667 2.77338 10.496C2.77338 10.7893 2.85071 11.0347 3.00538 11.232C3.16004 11.424 3.36271 11.5893 3.61338 11.728C3.86938 11.8667 4.16004 11.9893 4.48538 12.096C4.81071 12.1973 5.14138 12.3067 5.47738 12.424C5.81871 12.5413 6.15204 12.6747 6.47738 12.824C6.80271 12.9733 7.09071 13.1627 7.34138 13.392C7.59738 13.6213 7.80271 13.9013 7.95738 14.232C8.11204 14.5627 8.18937 14.9653 8.18937 15.44C8.18937 15.952 8.10138 16.432 7.92538 16.88C7.74938 17.328 7.49338 17.72 7.15738 18.056C6.82671 18.3867 6.41604 18.648 5.92538 18.84C5.44004 19.032 4.88538 19.128 4.26138 19.128C3.89338 19.128 3.53338 19.0907 3.18138 19.016C2.83471 18.9467 2.50138 18.848 2.18138 18.72C1.86671 18.5867 1.57071 18.4267 1.29338 18.24C1.01604 18.0533 0.768042 17.8453 0.549375 17.616L1.09338 16.72C1.14138 16.6453 1.20271 16.5867 1.27738 16.544C1.35204 16.5013 1.43471 16.48 1.52538 16.48C1.64804 16.48 1.78404 16.5387 1.93338 16.656C2.08271 16.768 2.26138 16.8933 2.46938 17.032C2.68271 17.1653 2.93871 17.2907 3.23738 17.408C3.53604 17.52 3.89338 17.576 4.30938 17.576C4.98671 17.576 5.50938 17.4107 5.87738 17.08C6.25071 16.7493 6.43738 16.2933 6.43738 15.712C6.43738 15.3867 6.36004 15.1227 6.20538 14.92C6.05071 14.712 5.84538 14.5387 5.58938 14.4C5.33871 14.2613 5.05071 14.144 4.72538 14.048C4.40004 13.952 4.06938 13.8507 3.73338 13.744C3.39738 13.632 3.06671 13.504 2.74138 13.36C2.41604 13.2107 2.12538 13.0187 1.86938 12.784C1.61871 12.544 1.41604 12.2507 1.26138 11.904C1.10671 11.552 1.02938 11.1147 1.02938 10.592C1.02938 10.176 1.10938 9.77333 1.26938 9.384C1.43471 8.99467 1.67204 8.65067 1.98138 8.352C2.29604 8.048 2.68271 7.80533 3.14138 7.624C3.60004 7.44267 4.12271 7.352 4.70938 7.352C5.37071 7.352 5.97604 7.456 6.52538 7.664C7.08004 7.872 7.55738 8.168 7.95738 8.552L7.50138 9.448ZM18.2118 16.432C18.3131 16.432 18.4011 16.472 18.4758 16.552L19.2198 17.36C18.7504 17.9253 18.1744 18.3627 17.4918 18.672C16.8091 18.976 15.9931 19.128 15.0438 19.128C14.2011 19.128 13.4384 18.984 12.7558 18.696C12.0784 18.4027 11.4998 17.9973 11.0198 17.48C10.5398 16.9573 10.1691 16.336 9.90775 15.616C9.65175 14.896 9.52375 14.104 9.52375 13.24C9.52375 12.376 9.65975 11.584 9.93175 10.864C10.2091 10.1387 10.5958 9.51733 11.0918 9C11.5931 8.47733 12.1904 8.072 12.8837 7.784C13.5824 7.496 14.3504 7.352 15.1878 7.352C16.0198 7.352 16.7531 7.488 17.3878 7.76C18.0278 8.02667 18.5824 8.384 19.0518 8.832L18.4358 9.704C18.3931 9.76267 18.3424 9.81333 18.2838 9.856C18.2251 9.89867 18.1451 9.92 18.0438 9.92C17.9371 9.92 17.8144 9.872 17.6758 9.776C17.5424 9.67467 17.3691 9.56533 17.1558 9.448C16.9478 9.32533 16.6838 9.216 16.3638 9.12C16.0491 9.01867 15.6544 8.968 15.1798 8.968C14.6304 8.968 14.1264 9.064 13.6678 9.256C13.2091 9.448 12.8144 9.728 12.4838 10.096C12.1531 10.464 11.8944 10.912 11.7078 11.44C11.5264 11.968 11.4358 12.568 11.4358 13.24C11.4358 13.9173 11.5318 14.5227 11.7238 15.056C11.9158 15.584 12.1798 16.032 12.5158 16.4C12.8518 16.7627 13.2464 17.04 13.6998 17.232C14.1531 17.424 14.6411 17.52 15.1638 17.52C15.4838 17.52 15.7691 17.504 16.0198 17.472C16.2758 17.4347 16.5104 17.3787 16.7238 17.304C16.9371 17.224 17.1371 17.1253 17.3238 17.008C17.5158 16.8907 17.7051 16.7467 17.8918 16.576C17.9984 16.48 18.1051 16.432 18.2118 16.432ZM24.1808 13C24.6074 13 24.9808 12.9493 25.3008 12.848C25.6208 12.7413 25.8874 12.5947 26.1008 12.408C26.3141 12.2213 26.4741 12 26.5808 11.744C26.6874 11.4827 26.7408 11.1947 26.7408 10.88C26.7408 10.2507 26.5328 9.77067 26.1168 9.44C25.7008 9.10933 25.0714 8.944 24.2288 8.944H22.7088V13H24.1808ZM29.6048 19H27.9328C27.6021 19 27.3621 18.872 27.2128 18.616L24.5248 14.736C24.4341 14.6027 24.3354 14.5067 24.2288 14.448C24.1221 14.3893 23.9621 14.36 23.7488 14.36H22.7088V19H20.8368V7.48H24.2288C24.9861 7.48 25.6368 7.55733 26.1808 7.712C26.7301 7.86667 27.1808 8.088 27.5328 8.376C27.8848 8.65867 28.1434 9 28.3088 9.4C28.4794 9.8 28.5648 10.2453 28.5648 10.736C28.5648 11.136 28.5034 11.5093 28.3808 11.856C28.2634 12.2027 28.0901 12.5173 27.8608 12.8C27.6368 13.0827 27.3594 13.328 27.0288 13.536C26.6981 13.744 26.3221 13.9067 25.9008 14.024C26.1301 14.1627 26.3274 14.3573 26.4928 14.608L29.6048 19ZM41.6764 13.24C41.6764 14.0933 41.5377 14.88 41.2604 15.6C40.983 16.32 40.591 16.9413 40.0844 17.464C39.583 17.9813 38.9777 18.3867 38.2684 18.68C37.5644 18.9733 36.7804 19.12 35.9164 19.12C35.0577 19.12 34.2737 18.9733 33.5644 18.68C32.8604 18.3867 32.255 17.9813 31.7484 17.464C31.2417 16.9413 30.8497 16.32 30.5724 15.6C30.295 14.88 30.1564 14.0933 30.1564 13.24C30.1564 12.3867 30.295 11.6 30.5724 10.88C30.8497 10.16 31.2417 9.53867 31.7484 9.016C32.255 8.49333 32.8604 8.08533 33.5644 7.792C34.2737 7.49867 35.0577 7.352 35.9164 7.352C36.7804 7.352 37.5644 7.49867 38.2684 7.792C38.9777 8.08533 39.583 8.49333 40.0844 9.016C40.591 9.53867 40.983 10.16 41.2604 10.88C41.5377 11.6 41.6764 12.3867 41.6764 13.24ZM39.7644 13.24C39.7644 12.5787 39.6737 11.984 39.4924 11.456C39.3164 10.928 39.0604 10.48 38.7244 10.112C38.3937 9.744 37.991 9.46133 37.5164 9.264C37.0417 9.06667 36.5084 8.968 35.9164 8.968C35.3297 8.968 34.799 9.06667 34.3244 9.264C33.8497 9.46133 33.4444 9.744 33.1084 10.112C32.7724 10.48 32.5137 10.928 32.3324 11.456C32.151 11.984 32.0604 12.5787 32.0604 13.24C32.0604 13.9067 32.151 14.504 32.3324 15.032C32.5137 15.56 32.7724 16.008 33.1084 16.376C33.4444 16.7387 33.8497 17.0187 34.3244 17.216C34.799 17.408 35.3297 17.504 35.9164 17.504C36.5084 17.504 37.0417 17.408 37.5164 17.216C37.991 17.0187 38.3937 16.7387 38.7244 16.376C39.0604 16.008 39.3164 15.56 39.4924 15.032C39.6737 14.504 39.7644 13.9067 39.7644 13.24ZM50.3834 17.432V19H43.7274V7.48H45.5994V17.432H50.3834ZM58.649 17.432V19H51.993V7.48H53.865V17.432H58.649Z" fill="white"/>
<path d="M24.5 44L29.5 49L34.5 44M24.5 37L29.5 42L34.5 37" stroke="white" stroke-width="2" stroke-linecap="round" stroke-linejoin="round"/>
</svg>
