<svg width="21" height="20" viewBox="0 0 21 20" fill="none" xmlns="http://www.w3.org/2000/svg">
<mask id="mask0_326_505" style="mask-type:luminance" maskUnits="userSpaceOnUse" x="3" y="2" width="16" height="16">
<path fill-rule="evenodd" clip-rule="evenodd" d="M5.02549 9.16667C5.02549 6.40917 7.26799 4.16667 10.0255 4.16667C12.783 4.16667 15.0255 6.40917 15.0255 9.16667C15.0255 11.9242 12.783 14.1667 10.0255 14.1667C7.26799 14.1667 5.02549 11.9242 5.02549 9.16667ZM18.1147 16.0775L15.2855 13.2475C16.163 12.1192 16.6922 10.705 16.6922 9.16667C16.6922 5.49083 13.7013 2.5 10.0255 2.5C6.34966 2.5 3.35883 5.49083 3.35883 9.16667C3.35883 12.8425 6.34966 15.8333 10.0255 15.8333C11.5638 15.8333 12.978 15.3042 14.1063 14.4267L16.9363 17.2558C17.0988 17.4183 17.3122 17.5 17.5255 17.5C17.7388 17.5 17.9522 17.4183 18.1147 17.2558C18.4405 16.93 18.4405 16.4033 18.1147 16.0775Z" fill="white"/>
</mask>
<g mask="url(#mask0_326_505)">
<rect x="0.858826" width="20" height="20" fill="white"/>
</g>
</svg>
