<svg width="199" height="34" viewBox="0 0 199 34" fill="none" xmlns="http://www.w3.org/2000/svg">
<g clip-path="url(#clip0_326_375)">
<path d="M2.97713 7.11827V22.3013H4.92227C6.74579 22.3013 8.21179 22.0588 9.31074 21.5519C10.7863 20.8639 11.8076 19.7884 12.3753 18.3268C12.6721 17.5898 12.8384 16.452 12.8772 14.9127C12.9168 13.0138 12.7329 11.6174 12.3153 10.7199C11.672 9.32569 10.6375 8.33664 9.22429 7.75493C8.36125 7.40913 6.92822 7.19813 4.92227 7.11827H2.97713ZM0.141113 6.10944H6.16482C9.39792 6.10944 11.8178 6.77906 13.4252 8.11538C15.1088 9.50006 15.9557 11.6496 15.9557 14.5596C15.9345 17.6125 14.9864 19.8785 13.1028 21.3562C12.1621 22.083 11.0236 22.6025 9.69391 22.916C8.92904 23.086 7.75463 23.223 6.16555 23.3146H0.141113V6.10944Z" fill="white"/>
<path d="M27.3569 4.40678L19.358 23.2669H16.426L26.3715 0H28.3152L42.1517 34H39.2951L27.3569 4.40678Z" fill="white"/>
<path d="M39.9707 6.10944H52.6137V7.11827H42.8067V13.9435H51.4606V14.9523H42.8067V22.3013H52.805V23.3138H39.9707V6.10944Z" fill="white"/>
<path d="M59.5511 7.11827V22.3013H61.494C63.3256 22.3013 64.7902 22.0588 65.8891 21.5519C67.3602 20.8639 68.3823 19.7884 68.9515 18.3268C69.249 17.5898 69.4167 16.452 69.4541 14.9127C69.4922 13.0138 69.3032 11.6174 68.8944 10.7199C68.2453 9.32569 67.213 8.33664 65.7975 7.75493C64.9374 7.40913 63.5029 7.19813 61.494 7.11827H59.5511ZM56.7195 6.10944H62.7425C65.9741 6.10944 68.3932 6.77906 70.0014 8.11538C71.6886 9.50006 72.5304 11.6496 72.5304 14.5596C72.5114 17.6125 71.5575 19.8785 69.6812 21.3562C68.739 22.083 67.602 22.6025 66.2701 22.916C65.5059 23.086 64.3271 23.223 62.7417 23.3146H56.7188V6.10944H56.7195Z" fill="white"/>
<path d="M85.1718 6.87793C84.1483 6.87793 83.1028 7.19369 82.042 7.81863C81.1562 8.33806 80.4309 9.22968 79.8573 10.5015C79.3049 11.7704 79.0331 13.1038 79.0331 14.5002C79.0331 16.2109 79.4265 17.7941 80.2148 19.2543C80.8207 20.4148 81.5907 21.272 82.5182 21.8185C83.3219 22.2874 84.1564 22.5314 85.0223 22.5431C86.0473 22.5636 87.0261 22.2735 87.9719 21.6749C88.8386 21.1284 89.5573 20.3107 90.1251 19.2301C90.9142 17.7546 91.3208 16.164 91.3369 14.4533C91.3369 12.9485 91.0138 11.5609 90.364 10.2883C89.7317 9.03553 88.9368 8.1571 87.9719 7.65672C86.9506 7.13655 86.0158 6.87866 85.1725 6.87866M85.1 5.82074C86.7096 5.82074 88.1741 6.08815 89.4899 6.62297C90.9838 7.21787 92.1919 8.25235 93.115 9.71248C93.9605 11.0503 94.3964 12.6599 94.4154 14.5457C94.4345 16.7348 93.9216 18.5656 92.8791 20.0433C91.1904 22.3885 88.6239 23.5739 85.1872 23.6032C83.5739 23.6032 82.1907 23.3709 81.0295 22.8969C79.5723 22.2991 78.3861 21.3467 77.4608 20.0433C76.4982 18.6425 75.997 16.9238 75.9582 14.8775C75.9377 12.8811 76.3795 11.1594 77.2843 9.71248C78.8946 7.11896 81.4998 5.82074 85.1007 5.82074H85.1Z" fill="white"/>
<path d="M98.4824 6.10944H100.622L112.416 20.4038V6.10944H114.145V23.267H112.005L100.211 9.09125V23.267H98.4824V6.10944Z" fill="white"/>
<path d="M135.261 7.77545L134.467 9.51765C132.797 7.79157 130.905 6.9256 128.782 6.9256C127.49 6.9256 126.32 7.22231 125.281 7.81868C124.239 8.40991 123.404 9.29566 122.777 10.4679C122.11 11.7339 121.765 13.2035 121.747 14.8769C121.727 16.4579 122.015 17.8242 122.604 18.9818C123.19 20.1709 124.018 21.0683 125.075 21.6779C126.053 22.2427 127.107 22.5307 128.225 22.5461C129.012 22.5607 129.868 22.4142 130.788 22.1021C131.595 21.8325 132.103 21.5226 132.317 21.1621C132.358 21.083 132.407 20.9592 132.466 20.7863V14.3772H135.351V21.6266C134.39 22.6017 132.929 23.2135 130.966 23.4626C130.264 23.5585 129.48 23.604 128.615 23.604C126.655 23.604 125.064 23.3703 123.848 22.8962C122.145 22.2252 120.807 21.0888 119.846 19.488C119.104 18.2015 118.712 16.6506 118.672 14.8307C118.653 13.1054 118.978 11.6342 119.64 10.4085C120.533 8.73007 121.938 7.49852 123.84 6.71533C125.189 6.15194 126.752 5.86694 128.519 5.86694C130.986 5.86694 133.236 6.50433 135.261 7.77472" fill="white"/>
<path d="M153.754 6.54974H150.89V23.8655H153.754V6.54974Z" fill="white"/>
<path d="M158.125 6.55121H160.289L172.193 20.9775V6.55121H173.937V23.8655H171.778L159.876 9.56013V23.8655H158.125V6.55121Z" fill="white"/>
<path d="M192.719 8.3007L191.707 10.0583C191.508 9.83629 191.319 9.6253 191.141 9.41869C189.777 8.04281 188.299 7.34241 186.718 7.3263C185.389 7.31238 184.194 7.6721 183.123 8.41645C182.208 9.05164 181.487 9.99161 180.953 11.2451C180.419 12.4943 180.151 13.8614 180.151 15.3515C180.151 16.6967 180.371 17.8916 180.808 18.9363C181.38 20.2976 182.241 21.3496 183.392 22.0954C184.481 22.79 185.647 23.135 186.896 23.135C188.854 23.135 190.609 22.2764 192.154 20.5496L193.074 22.1885C191.111 23.4999 188.854 24.1717 186.296 24.2061C184.561 24.223 183.061 23.9578 181.816 23.42C178.72 22.1013 177.13 19.4997 177.045 15.6131C177.007 13.583 177.388 11.8789 178.182 10.4957C179.078 8.95787 180.336 7.82961 181.961 7.11676C183.231 6.54531 184.709 6.25739 186.389 6.25739C187.34 6.25739 188.223 6.36801 189.036 6.57535C190.181 6.86327 191.412 7.43985 192.719 8.3007Z" fill="white"/>
<path d="M197.239 21.0998C197.492 21.0998 197.764 21.1562 198.065 21.2676C198.597 21.5079 198.859 21.8881 198.859 22.4112C198.859 22.6493 198.791 22.8684 198.654 23.0779C198.336 23.5065 197.867 23.7204 197.238 23.7204C196.943 23.7204 196.665 23.6647 196.409 23.5541C195.875 23.2992 195.613 22.9182 195.613 22.4105C195.613 22.1702 195.679 21.9489 195.82 21.7438C196.133 21.313 196.604 21.0991 197.238 21.0991" fill="white"/>
<path d="M30.3323 17.3773C30.3323 19.006 29.0106 20.3262 27.3776 20.3262C25.7445 20.3262 24.4294 19.006 24.4294 17.3773C24.4294 15.7487 25.7511 14.4255 27.3776 14.4255C29.004 14.4255 30.3323 15.7465 30.3323 17.3773Z" fill="#DE2526"/>
</g>
<defs>
<clipPath id="clip0_326_375">
<rect width="198.718" height="34" fill="white" transform="translate(0.141113)"/>
</clipPath>
</defs>
</svg>
