<?xml version="1.0" encoding="UTF-8" standalone="no"?>
<!-- Created with Inkscape (http://www.inkscape.org/) -->

<svg
   version="1.1"
   id="svg2"
   width="3779.5332"
   height="2645.6667"
   viewBox="0 0 3779.5332 2645.6667"
   sodipodi:docname="대동로고 (1).ai"
   xmlns:inkscape="http://www.inkscape.org/namespaces/inkscape"
   xmlns:sodipodi="http://sodipodi.sourceforge.net/DTD/sodipodi-0.dtd"
   xmlns="http://www.w3.org/2000/svg"
   xmlns:svg="http://www.w3.org/2000/svg">
  <defs
     id="defs6">
    <clipPath
       clipPathUnits="userSpaceOnUse"
       id="clipPath16">
      <path
         d="M 0,1984.25 H 2834.65 V 0 H 0 Z"
         id="path14" />
    </clipPath>
  </defs>
  <sodipodi:namedview
     id="namedview4"
     pagecolor="#ffffff"
     bordercolor="#000000"
     borderopacity="0.25"
     inkscape:showpageshadow="2"
     inkscape:pageopacity="0.0"
     inkscape:pagecheckerboard="0"
     inkscape:deskcolor="#d1d1d1" />
  <g
     id="g8"
     inkscape:groupmode="layer"
     inkscape:label="대동로고 (1)"
     transform="matrix(1.3333333,0,0,-1.3333333,0,2645.6667)">
    <g
       id="g10">
      <g
         id="g12"
         clip-path="url(#clipPath16)">
        <g
           id="g18"
           transform="translate(2376.0352,652.6602)">
          <path
             d="m 0,0 h -26.215 v -45.285 c 0,-6.194 1.83,-10.827 5.856,-14.191 3.92,-3.362 8.757,-5.03 14.609,-5.03 h 127.356 v 10.705 H 0 Z M 105.459,86.726 H 83.149 V 147.2 H 58.874 V -7.247 h 24.275 v 83.581 h 22.31 V -7.247 h 24.276 V 147.2 H 105.459 Z M 23.221,57.311 c 11.07,8.671 17.441,18.94 19.529,31.539 l 0.683,4.29 c 0,0 0.41,5.435 -0.412,10.381 l -1.033,3.925 c -3.134,11.724 -9.787,21.117 -20.442,28.707 -10.587,7.529 -22.75,11.215 -36.972,11.215 -16.075,0 -29.531,-4.894 -41.174,-15.016 -11.539,-10.141 -17.25,-22.063 -17.25,-36.348 0,-14.465 5.711,-26.356 17.25,-36.465 11.643,-10.131 25.099,-15.027 41.174,-15.027 15.045,0 27.69,4.186 38.647,12.799 m -62.028,10.121 c -5.789,7.756 -8.777,17.315 -8.777,28.248 0,10.997 3.024,20.429 8.948,28.28 6.413,8.478 14.251,12.765 23.21,12.765 9.365,0 17.252,-4.329 23.635,-12.785 5.82,-7.831 8.811,-17.327 8.811,-28.26 0,-10.933 -2.991,-20.492 -8.932,-28.301 -6.46,-8.455 -14.371,-12.766 -23.514,-12.766 -9.12,0 -16.969,4.311 -23.381,12.819 M -618.147,7.426 c -13.055,9.037 -28.499,13.43 -47.213,13.43 -18.655,0 -34.151,-4.393 -47.294,-13.43 -13.047,-8.874 -19.322,-19.41 -19.322,-32.28 0,-12.859 6.275,-23.417 19.322,-32.404 13.165,-9.163 28.639,-13.558 47.294,-13.558 18.694,0 34.118,4.395 47.155,13.558 12.924,8.987 19.217,19.545 19.217,32.404 0,12.87 -6.293,23.406 -19.159,32.28 m -47.344,-69.119 c -21.537,0 -39.008,16.472 -39.008,36.714 0,20.262 17.471,36.682 39.008,36.682 21.553,0 39.055,-16.42 39.055,-36.682 0,-20.242 -17.502,-36.714 -39.055,-36.714 M 299.792,58.674 c -11.691,14.026 -17.625,32.122 -17.625,53.73 v 30.008 h -24.604 v -30.008 c 0,-19.493 -4.969,-36.195 -14.711,-49.773 -9.672,13.422 -14.633,30.156 -14.633,49.773 v 30.008 h -24.585 v -30.008 c 0,-21.273 -5.902,-39.277 -17.501,-53.448 -9.297,-11.464 -20.061,-19.097 -31.971,-23.313 l 8.629,-7.645 c 9.151,1.322 18.707,5.479 28.563,12.475 10.391,7.541 16.916,15.64 19.383,23.97 l 4.989,17.369 5.388,-17.224 C 222.789,59.111 226.232,53.74 231.249,48.533 225.34,41.89 219.446,36.35 211.443,33.539 l 8.588,-7.664 c 0,0 29.795,8.913 44.677,38.568 l 5.056,17.369 5.291,-17.224 c 2.578,-8.475 9.141,-16.639 19.636,-24.281 9.655,-7.102 19.268,-11.121 28.491,-12.37 l 8.509,7.706 c -11.732,4.164 -22.446,11.753 -31.899,23.031 m -468.043,43.285 c -3.493,12.943 -10.837,23.251 -22.638,31.634 -11.691,8.277 -25.049,12.368 -40.623,12.368 -17.762,0 -32.533,-5.424 -45.378,-16.627 -12.725,-11.069 -18.94,-24.251 -18.94,-40.058 0,-15.815 6.215,-28.915 18.94,-40.077 12.845,-11.162 27.616,-16.576 45.378,-16.576 16.578,0 30.518,4.592 42.573,14.098 12.179,9.558 19.136,20.929 21.512,34.756 l 0.701,4.771 c 0,0 0.445,5.966 -0.359,11.432 z M -205.65,57.842 c -7.094,-9.371 -15.795,-14.057 -25.862,-14.057 -10.094,0 -18.787,4.748 -25.752,14.076 -6.419,8.602 -9.672,19.077 -9.672,31.155 0,12.077 3.313,22.534 9.867,31.144 7.073,9.328 15.662,13.963 25.557,13.963 10.335,0 19.031,-4.686 26.032,-14.025 6.454,-8.548 9.673,-19.066 9.673,-31.082 0,-12.078 -3.332,-22.553 -9.843,-31.174 M 342.52,-65.234 h 26.323 V 147.567 H 342.52 Z m -697.897,212.81 h -26.238 v -212.81 h 26.238 v 141.61 h 37.863 v 10.683 h -37.863 z M -650.64,77.25 h 24.81 c 6.863,0 12.721,0.698 17.439,2 4.756,1.353 8.711,2.936 11.67,4.82 l 10.447,6.342 v 4.29 l -3.671,-1.417 c -3.774,-1.395 -8.551,-2.664 -14.092,-3.676 -5.741,-1.05 -12.535,-1.623 -20.293,-1.623 h -48.637 l -0.03,-0.052 h -46.04 v 48.219 h 127.978 v 10.661 H -748.282 V 96.158 c 0,-5.901 1.987,-10.515 6.2,-13.91 4.118,-3.375 9.426,-4.998 16.328,-4.998 h 45.912 V 44.909 h -98.424 V 34.227 h 226.099 v 10.682 h -98.473 z m -197.773,10.684 h -37.892 v 60.455 h -27.116 V 33.04 l -3.61,-1.395 c -3.776,-1.397 -8.573,-2.666 -14.121,-3.647 -5.732,-1.125 -12.536,-1.676 -20.219,-1.676 h -48.705 v 103.012 h 52.533 v 10.704 h -81.121 V 34.33 c 0,-5.934 1.997,-10.494 6.1,-13.859 3.965,-3.239 9.334,-4.831 16.498,-4.831 h 53.127 c 6.935,0 12.766,0.655 17.482,1.969 4.719,1.332 8.64,2.862 11.63,4.809 l 10.406,6.353 v -92.964 h 27.116 V 77.521 h 37.892 V -64.193 h 27.104 v 212.582 h -27.104 z m 708.362,-153.168 h 26.212 v 212.801 h -26.212 z m -266.28,167.193 c -3.463,12.943 -10.791,23.251 -22.551,31.634 -11.7,8.277 -25.03,12.368 -40.702,12.368 -17.742,0 -32.537,-5.424 -45.32,-16.627 -12.766,-11.069 -19.016,-24.251 -19.016,-40.058 0,-15.815 6.25,-28.915 19.016,-40.077 12.783,-11.162 27.578,-16.576 45.32,-16.576 16.647,0 30.534,4.592 42.628,14.098 12.143,9.558 19.145,20.929 21.435,34.756 l 0.744,4.771 c 0,0 0.418,5.966 -0.383,11.432 z m -37.404,-44.117 c -7.083,-9.371 -15.755,-14.057 -25.849,-14.057 -10.068,0 -18.747,4.748 -25.752,14.076 -6.404,8.602 -9.602,19.077 -9.602,31.155 0,12.077 3.282,22.534 9.803,31.144 7.134,9.328 15.696,13.963 25.551,13.963 10.325,0 19.048,-4.686 26.043,-14.025 6.489,-8.548 9.683,-19.066 9.683,-31.082 0,-12.078 -3.372,-22.553 -9.877,-31.174"
             style="fill:#221f20;fill-opacity:1;fill-rule:nonzero;stroke:none"
             id="path20" />
        </g>
        <g
           id="g22"
           transform="translate(1005.3076,587.0098)">
          <path
             d="m 0,0 c -23.394,34.361 -42.644,73.242 -42.644,114.205 0,41.252 19.25,79.853 42.644,114.223 H 25.681 C 2.745,190.34 -12.839,153.865 -12.839,114.205 -12.839,74.824 2.745,38.067 25.681,0 H 0"
             style="fill:#221f20;fill-opacity:1;fill-rule:nonzero;stroke:none"
             id="path24" />
        </g>
        <g
           id="g26"
           transform="translate(1141.6748,663.1563)">
          <path
             d="M 0,0 V -57.112 H -27.718 V 0 h -81.44 V 23.521 H 81.43 L 81.43,0 Z m -84.26,121.606 v 23.543 H 56.534 V 121.606 H 0.859 C 1.295,88.287 34.014,64.776 66.062,62.121 L 54.371,43.096 C 31.857,44.159 0.442,60.539 -13.858,81.957 -28.155,60.539 -59.543,44.159 -82.072,43.096 l -11.695,19.025 c 32.05,2.655 64.74,26.166 65.177,59.485 h -55.67"
             style="fill:#221f20;fill-opacity:1;fill-rule:nonzero;stroke:none"
             id="path28" />
        </g>
        <g
           id="g30"
           transform="translate(1252.228,587.0098)">
          <path
             d="m 0,0 h -25.672 c 22.928,38.067 38.517,74.824 38.517,114.205 0,39.66 -15.589,76.135 -38.517,114.223 H 0 C 23.391,194.058 42.655,155.457 42.655,114.205 42.655,73.242 23.391,34.361 0,0"
             style="fill:#221f20;fill-opacity:1;fill-rule:nonzero;stroke:none"
             id="path32" />
        </g>
        <g
           id="g34"
           transform="translate(45.3105,1124.9971)">
          <path
             d="m 0,0 h 82.218 c 44.126,0 77.16,-9.138 99.101,-27.376 22.982,-18.897 34.537,-48.236 34.537,-87.958 -0.288,-41.666 -13.232,-72.603 -38.945,-92.769 -12.839,-9.924 -28.377,-17.005 -46.529,-21.293 -10.441,-2.324 -26.467,-4.187 -48.164,-5.438 H 0 Z M 38.708,-13.773 V -221.014 H 65.26 c 24.887,0 44.903,3.314 59.904,10.234 20.142,9.388 34.077,24.072 41.831,44.022 4.047,10.058 6.322,25.589 6.845,46.605 0.544,25.915 -1.968,44.983 -7.673,57.226 -8.783,19.029 -22.903,32.528 -42.189,40.467 -11.782,4.721 -31.341,7.602 -58.718,8.687 H 38.708"
             style="fill:#221f20;fill-opacity:1;fill-rule:nonzero;stroke:none"
             id="path36" />
        </g>
        <g
           id="g38"
           transform="translate(416.7881,1148.2314)">
          <path
             d="m 0,0 -109.178,-257.423 h -40.02 L -13.451,60.154 h 26.537 l 188.859,-464.08 h -38.989 z"
             style="fill:#221f20;fill-opacity:1;fill-rule:nonzero;stroke:none"
             id="path40" />
        </g>
        <g
           id="g42"
           transform="translate(588.9634,1124.9971)">
          <path
             d="M 0,0 H 172.57 V -13.773 H 38.708 v -93.162 h 118.118 v -13.764 H 38.708 v -100.315 h 136.468 v -13.82 H 0 Z"
             style="fill:#221f20;fill-opacity:1;fill-rule:nonzero;stroke:none"
             id="path44" />
        </g>
        <g
           id="g46"
           transform="translate(817.5645,1124.9971)">
          <path
             d="m 0,0 h 82.213 c 44.109,0 77.129,-9.138 99.082,-27.376 23.034,-18.897 34.524,-48.236 34.524,-87.958 -0.256,-41.666 -13.281,-72.603 -38.889,-92.769 -12.858,-9.924 -28.38,-17.005 -46.557,-21.293 -10.432,-2.324 -26.519,-4.187 -48.16,-5.438 H 0 Z m 38.652,-13.773 v -207.241 h 26.523 c 24.997,0 44.988,3.314 59.99,10.234 20.075,9.388 34.025,24.072 41.797,44.022 4.059,10.058 6.347,25.589 6.865,46.605 0.521,25.915 -2.062,44.983 -7.641,57.226 -8.863,19.029 -22.954,32.528 -42.274,40.467 -11.744,4.721 -31.317,7.602 -58.737,8.687 H 38.652"
             style="fill:#221f20;fill-opacity:1;fill-rule:nonzero;stroke:none"
             id="path48" />
        </g>
        <g
           id="g50"
           transform="translate(1204.9385,1128.9458)">
          <path
             d="m 0,0 c 21.973,0 41.956,-3.65 59.919,-10.949 20.385,-8.124 36.884,-22.239 49.481,-42.172 11.543,-18.258 17.489,-40.231 17.746,-65.972 0.26,-29.878 -6.74,-54.87 -20.968,-75.037 -23.053,-32.007 -58.08,-48.188 -104.993,-48.595 -22.02,0 -40.899,3.174 -56.748,9.644 -19.886,8.163 -36.077,21.159 -48.712,38.951 -13.135,19.115 -19.978,42.575 -20.515,70.512 -0.279,27.246 5.754,50.751 18.097,70.497 C -84.712,-17.722 -49.153,0 0,0 m 0.988,-14.437 c -13.974,0 -28.236,-4.314 -42.721,-12.844 -12.085,-7.09 -21.992,-19.258 -29.824,-36.615 -7.538,-17.318 -11.253,-35.522 -11.253,-54.576 0,-23.347 5.375,-44.96 16.133,-64.89 8.266,-15.844 18.779,-27.543 31.435,-35.003 10.97,-6.403 22.355,-9.729 34.181,-9.885 13.995,-0.276 27.352,3.681 40.258,11.853 11.829,7.459 21.638,18.617 29.393,33.367 10.766,20.138 16.315,41.846 16.541,65.198 0,20.536 -4.413,39.476 -13.282,56.852 -8.631,17.1 -19.481,29.092 -32.652,35.921 -13.938,7.096 -26.698,10.622 -38.209,10.622"
             style="fill:#221f20;fill-opacity:1;fill-rule:nonzero;stroke:none"
             id="path52" />
        </g>
        <g
           id="g54"
           transform="translate(1387.6094,1124.9971)">
          <path
             d="M 0,0 H 29.207 L 190.181,-195.106 V 0 h 23.603 V -234.188 H 184.579 L 23.588,-40.7 V -234.188 H 0 Z"
             style="fill:#221f20;fill-opacity:1;fill-rule:nonzero;stroke:none"
             id="path56" />
        </g>
        <g
           id="g58"
           transform="translate(1889.6191,1102.2568)">
          <path
             d="m 0,0 -10.845,-23.778 c -22.786,23.56 -48.615,35.38 -77.596,35.38 -17.631,0 -33.605,-4.052 -47.776,-12.194 -14.228,-8.073 -25.63,-20.158 -34.183,-36.158 -9.099,-17.281 -13.81,-37.339 -14.065,-60.179 -0.265,-21.576 3.658,-40.232 11.695,-56.033 8,-16.228 19.301,-28.481 33.72,-36.799 13.364,-7.711 27.736,-11.644 42.995,-11.853 10.744,-0.199 22.421,1.797 34.981,6.062 11.015,3.677 17.945,7.91 20.884,12.825 0.548,1.08 1.221,2.769 2.027,5.134 V -90.11 H 1.204 v -98.948 c -13.107,-13.31 -33.053,-21.662 -59.843,-25.064 -9.592,-1.307 -20.285,-1.934 -32.086,-1.934 -26.761,0 -48.475,3.194 -65.068,9.664 -23.248,9.162 -41.507,24.675 -54.627,46.52 -10.126,17.56 -15.478,38.726 -16.02,63.573 -0.256,23.547 4.172,43.628 13.214,60.36 12.191,22.914 31.367,39.721 57.332,50.408 18.407,7.688 39.746,11.575 63.871,11.575 C -58.354,26.044 -27.639,17.346 0,0"
             style="fill:#221f20;fill-opacity:1;fill-rule:nonzero;stroke:none"
             id="path60" />
        </g>
        <path
           d="m 2102.949,882.637 h 39.085 v 236.352 h -39.085 z"
           style="fill:#221f20;fill-opacity:1;fill-rule:nonzero;stroke:none"
           id="path62" />
        <g
           id="g64"
           transform="translate(2201.6973,1118.9688)">
          <path
             d="M 0,0 H 29.535 L 192.026,-196.912 V 0 h 23.793 V -236.332 H 186.351 L 23.905,-41.074 V -236.332 H 0 Z"
             style="fill:#221f20;fill-opacity:1;fill-rule:nonzero;stroke:none"
             id="path66" />
        </g>
        <g
           id="g68"
           transform="translate(2673.8936,1095.0903)">
          <path
             d="m 0,0 -13.818,-23.991 c -2.724,3.029 -5.29,5.91 -7.719,8.734 -18.616,18.782 -38.788,28.344 -60.38,28.556 -18.144,0.194 -34.449,-4.721 -49.058,-14.877 -12.503,-8.673 -22.343,-21.503 -29.622,-38.61 -7.299,-17.047 -10.948,-35.708 -10.948,-56.055 0,-18.355 3.004,-34.666 8.957,-48.927 7.812,-18.583 19.566,-32.936 35.282,-43.125 14.865,-9.477 30.782,-14.187 47.832,-14.187 26.723,0 50.678,11.717 71.757,35.288 l 12.562,-22.367 c -26.797,-17.897 -57.596,-27.072 -92.519,-27.537 -23.678,-0.229 -44.153,3.394 -61.149,10.729 -42.258,18.002 -63.946,53.511 -65.122,106.563 -0.513,27.707 4.682,50.974 15.524,69.847 12.23,20.991 29.397,36.391 51.589,46.116 17.328,7.801 37.5,11.735 60.438,11.735 12.969,0 25.026,-1.507 36.119,-4.345 C -34.646,19.617 -17.841,11.744 0,0"
             style="fill:#221f20;fill-opacity:1;fill-rule:nonzero;stroke:none"
             id="path70" />
        </g>
        <g
           id="g72"
           transform="translate(2735.5762,920.3828)">
          <path
             d="m 0,0 c 3.46,0 7.156,-0.768 11.271,-2.289 7.269,-3.275 10.842,-8.47 10.842,-15.611 0,-3.248 -0.927,-6.244 -2.795,-9.102 C 14.986,-32.854 8.581,-35.774 0,-35.774 c -4.029,0 -7.822,0.758 -11.318,2.266 -7.293,3.477 -10.871,8.683 -10.871,15.608 0,3.283 0.909,6.303 2.825,9.104 C -15.082,-2.919 -8.665,0 0,0"
             style="fill:#221f20;fill-opacity:1;fill-rule:nonzero;stroke:none"
             id="path74" />
        </g>
        <g
           id="g76"
           transform="translate(457.3965,971.1973)">
          <path
             d="m 0,0 c 0,-22.23 -18.038,-40.25 -40.329,-40.25 -22.205,0 -40.245,18.02 -40.245,40.25 0,22.262 18.04,40.291 40.245,40.291 C -18.038,40.291 0,22.262 0,0"
             style="fill:#de2626;fill-opacity:1;fill-rule:nonzero;stroke:none"
             id="path78" />
        </g>
      </g>
    </g>
  </g>
</svg>
